<svg width="0" height="0" class="hidden">
  <symbol viewBox="0 0 15 15" fill="none" xmlns="http://www.w3.org/2000/svg" id="common__icon-basket">
    <path d="M4.5 15a1.5 1.5 0 1 0 0-3 1.5 1.5 0 0 0 0 3zm8 0a1.5 1.5 0 1 0 0-3 1.5 1.5 0 0 0 0 3zM15 2H4.07l-.422-2H0v2h2.031l1.985 9H15V9H9.441L15 6.951V2z" fill="currentColor"></path>
  </symbol>
  <symbol viewBox="0 0 14 16" fill="none" xmlns="http://www.w3.org/2000/svg" id="user-controls__icon-bookmark">
    <path d="M14 15c0 .55-.368.741-.818.426l-5.363-3.765c-.45-.315-1.187-.315-1.637 0L.818 15.426C.368 15.741 0 15.55 0 15V1c0-.55.45-1 1-1h12c.55 0 1 .45 1 1v14z" fill="currentColor"></path>
  </symbol>
  <symbol viewBox="0 0 17 17" fill="none" xmlns="http://www.w3.org/2000/svg" id="user-controls__icon-search">
    <path fill-rule="evenodd" clip-rule="evenodd" d="M13.458 12.044L17 15.586 15.586 17l-3.542-3.542A7.465 7.465 0 0 1 7.5 15 7.5 7.5 0 1 1 15 7.5c0 1.643-.542 3.24-1.542 4.544zM7.5 2A5.506 5.506 0 0 0 2 7.5 5.506 5.506 0 0 0 7.5 13c3.032 0 5.5-2.468 5.5-5.5C13 4.467 10.532 2 7.5 2z"
      fill="currentColor"></path>
  </symbol>
  <symbol viewBox="0 0 20 17" fill="none" xmlns="http://www.w3.org/2000/svg" id="user-nav__icon-login">
    <path d="M14.167 8.5L5.714 0v6H0v5h5.714v6l8.453-8.5z" fill="currentColor"></path>
    <path d="M16.177 15.01H11.39V17h4.787c2.074 0 2.861-1.81 2.885-3.026V3.028C19.038 1.811 18.252 0 16.177 0H11.39v1.99h4.787c.8 0 .945.681.962 1.057v10.904c-.016.376-.163 1.059-.962 1.059z" fill="currentColor"></path>
  </symbol>
  <symbol viewBox="0 0 20 17" fill="none" xmlns="http://www.w3.org/2000/svg" id="user-nav__icon-logout">
    <path d="M20 8.5L11.125 0v6h-6v5h6v6L20 8.5z" fill="currentColor"></path>
    <path d="M2.106 13.952V3.048c.018-.376.17-1.057 1.01-1.057h5.027V0H3.116C.938 0 .112 1.81.086 3.027v10.946C.113 15.189.939 17 3.117 17h5.027v-1.99H3.116c-.84 0-.992-.683-1.01-1.058z" fill="currentColor"></path>
  </symbol>
  <symbol viewBox="0 0 20 18" fill="none" xmlns="http://www.w3.org/2000/svg" id="user-nav__icon-profile">
    <path d="M17.881 14.166c-2.144-.735-4.256-1.666-5.207-2.39-.657-.501-.77-1.618-.517-2.415 1.118-.903 1.864-2.477 1.864-4.278C14.021 2.276 12.221 0 10 0S5.979 2.276 5.979 5.083c0 1.801.746 3.374 1.863 4.277.253.798.141 1.915-.517 2.416-.95.724-3.063 1.654-5.207 2.39C-.026 14.902 0 18 0 18h20s.025-3.099-2.119-3.834z"
      fill="currentColor"></path>
  </symbol>
</svg>