<svg width="0" height="0" class="hidden">
  <symbol viewBox="0 0 70 70" fill="none" xmlns="http://www.w3.org/2000/svg" id="common__flag-new">
    <mask id="a" maskUnits="userSpaceOnUse" x="0" y="0" width="70" height="70">
      <path fill="#C4C4C4" d="M0 0h70v70H0z"></path>
    </mask>
    <g mask="url(#a)">
      <path fill="#EE3643" d="M22.213-23l70.71 70.71-21.212 21.214L1-1.787z"></path>
      <path d="M34.453 19.11l6.93-6.93.99.99L39.5 20.1l.05.049 4.9-4.9.891.89-6.93 6.93-.99-.99 2.871-6.93-.05-.049-4.9 4.9-.89-.89zm5.346 5.346l6.93-6.93 3.365 3.366-.693.693-2.475-2.475-2.276 2.277 2.178 2.178-.694.693-2.177-2.178-2.574 2.574 2.475 2.474-.693.694-3.366-3.366zm5.1 5.1l5.791-8.068.891.89-4.455 6.237.05.05 5.148-2.97.89.891-2.97 5.148.05.05 6.237-4.456.89.891-8.067 5.792-1.09-1.09 3.04-5.276-.04-.04-5.276 3.04-1.089-1.09z"
        fill="#fff"></path>
    </g>
  </symbol>
  <symbol viewBox="0 0 23 23" fill="none" xmlns="http://www.w3.org/2000/svg" id="filter__checkbox-off">
    <path fill-rule="evenodd" clip-rule="evenodd" d="M3 0h17c1.65 0 3 1.35 3 3v17c0 1.65-1.35 3-3 3H3c-1.65 0-3-1.35-3-3V3c0-1.65 1.35-3 3-3zm18 3c0-.542-.458-1-1-1H3c-.542 0-1 .458-1 1v17c0 .542.458 1 1 1h17c.542 0 1-.458 1-1V3z" fill="#C5C5C5"></path>
  </symbol>
  <symbol viewBox="0 0 27 23" fill="none" xmlns="http://www.w3.org/2000/svg" id="filter__checkbox-on">
    <path d="M7.285 7.486l-2.829 2.829 7.783 7.783L26.171 4.166l-2.828-2.829L12.24 12.439 7.285 7.486z" fill="#C5C5C5"></path>
    <path d="M21 20c0 .542-.458 1-1 1H3c-.542 0-1-.458-1-1V3c0-.542.458-1 1-1h16.908L21.493.415A2.96 2.96 0 0 0 20 0H3C1.35 0 0 1.35 0 3v17c0 1.65 1.35 3 3 3h17c1.65 0 3-1.35 3-3v-9.829l-2 2V20z" fill="#C5C5C5"></path>
  </symbol>
  <symbol viewBox="0 0 25 26" fill="none" xmlns="http://www.w3.org/2000/svg" id="filter__radio-off">
    <path fill-rule="evenodd" clip-rule="evenodd" d="M0 13.354C0 6.451 5.597.854 12.5.854S25 6.451 25 13.354s-5.597 12.5-12.5 12.5S0 20.257 0 13.354zm21 0c0-4.687-3.813-8.5-8.5-8.5-4.687 0-8.5 3.813-8.5 8.5 0 4.687 3.813 8.5 8.5 8.5 4.687 0 8.5-3.813 8.5-8.5z"
      fill="#C5C5C5"></path>
  </symbol>
  <symbol viewBox="0 0 25 26" fill="none" xmlns="http://www.w3.org/2000/svg" id="filter__radio-on">
    <path fill-rule="evenodd" clip-rule="evenodd" d="M0 13.354C0 6.451 5.597.854 12.5.854S25 6.451 25 13.354s-5.597 12.5-12.5 12.5S0 20.257 0 13.354zm21 0c0-4.687-3.813-8.5-8.5-8.5-4.687 0-8.5 3.813-8.5 8.5 0 4.687 3.813 8.5 8.5 8.5 4.687 0 8.5-3.813 8.5-8.5z"
      fill="#C5C5C5"></path>
    <path d="M12.5 17.854a4.5 4.5 0 1 0 0-9 4.5 4.5 0 0 0 0 9z" fill="#C5C5C5"></path>
  </symbol>
  <symbol viewBox="0 0 44 44" fill="none" xmlns="http://www.w3.org/2000/svg" id="footer-contacts__fb-icon">
    <path fill-rule="evenodd" clip-rule="evenodd" d="M21.894 1.484c11.23 0 20.333 9.103 20.333 20.333 0 11.23-9.104 20.332-20.333 20.332-11.23 0-20.333-9.103-20.333-20.332 0-11.23 9.103-20.333 20.333-20.333z" fill="#212A3A"></path>
    <path d="M28 15v-4h-4a4 4 0 0 0-4 4v4h-4v4h4v10h4V23h4v-4h-4v-4h4z" fill="#fff"></path>
  </symbol>
  <symbol viewBox="0 0 44 44" fill="none" xmlns="http://www.w3.org/2000/svg" id="footer-contacts__insta-icon">
    <path fill-rule="evenodd" clip-rule="evenodd" d="M21.894 1.484c11.23 0 20.333 9.103 20.333 20.333 0 11.23-9.104 20.332-20.333 20.332-11.23 0-20.333-9.103-20.333-20.332 0-11.23 9.103-20.333 20.333-20.333z" fill="#212A3A"></path>
    <path fill-rule="evenodd" clip-rule="evenodd" d="M14 11h15c1.65 0 3 1.35 3 3v15c0 1.65-1.35 3-3 3H14c-1.65 0-3-1.35-3-3V14c0-1.65 1.35-3 3-3zm11 10.5c0-1.93-1.57-3.5-3.5-3.5S18 19.57 18 21.5s1.57 3.5 3.5 3.5 3.5-1.57 3.5-3.5zM14 29v-9h1.181A6.48 6.48 0 0 0 15 21.5a6.5 6.5 0 1 0 13 0 6.451 6.451 0 0 0-.181-1.5H29v9H14zm11-11h4v-4h-4v4z"
      fill="#fff"></path>
  </symbol>
  <symbol viewBox="0 0 44 44" fill="none" xmlns="http://www.w3.org/2000/svg" id="footer-contacts__vk-icon">
    <path fill-rule="evenodd" clip-rule="evenodd" d="M22.163 1.484c11.49 0 20.805 9.103 20.805 20.333 0 11.23-9.315 20.332-20.805 20.332S1.357 33.046 1.357 21.817c0-11.23 9.315-20.333 20.806-20.333z" fill="#212A3A"></path>
    <path d="M24.54 25.728c.92-.29 2.1 1.913 3.354 2.755.942.639 1.663.501 1.663.501l3.345-.047s1.748-.105.921-1.457c-.068-.112-.484-1.002-2.489-2.833-2.096-1.915-1.812-1.605.712-4.916 1.538-2.019 2.153-3.251 1.96-3.776-.185-.506-1.314-.374-1.314-.374l-3.768.025c-.367 0-.678.111-.82.483-.003.004-.598 1.562-1.391 2.886-1.677 2.802-2.346 2.952-2.623 2.776-.637-.406-.476-1.628-.476-2.497 0-2.716.416-3.849-.815-4.141-.41-.098-.711-.161-1.76-.17-1.34-.02-2.479 0-3.124.308-.428.209-.757.667-.557.693.25.033.811.15 1.112.55.386.517.374 1.677.374 1.677s.22 3.198-.52 3.594c-.508.272-1.203-.283-2.699-2.827a23.511 23.511 0 0 1-1.34-2.74s-.112-.267-.314-.413a1.583 1.583 0 0 0-.578-.229l-3.576.023s-.538.015-.735.245c-.175.205-.015.627-.015.627s2.802 6.45 5.974 9.7c2.908 2.983 6.213 2.785 6.213 2.785h1.497s.452-.05.683-.292c.216-.225.206-.648.206-.648s-.03-1.977.9-2.268z"
      fill="#fff"></path>
  </symbol>
  <symbol viewBox="0 0 78 63" fill="none" xmlns="http://www.w3.org/2000/svg" id="promo-cart--delivery">
    <path d="M25.983 63a7.5 7.5 0 1 0 0-15 7.5 7.5 0 0 0 0 15zm33.999 0a7.5 7.5 0 1 0 0-15 7.5 7.5 0 0 0 0 15z" fill="#fff"></path>
    <path fill-rule="evenodd" clip-rule="evenodd" d="M11.062 0H64s14 14.812 14 33.688v15.25s-.188 4.062-3.125 4.063h-1.709c-1.174-6.261-6.659-11-13.26-11-6.6 0-12.086 4.739-13.26 11h-7.404c-1.174-6.261-6.659-11-13.259-11-6.6 0-12.086 4.739-13.259 11h-2.099s-2.564-.624-2.564-3.812V33.574l14.751-.76s5.483-.603 6.29-3.756L5.446 27.804a3.375 3.375 0 1 1 0-6.75h9.056l8.31-.428s8.177-.608 8.938-3.805l-.196-.043-28.085-1.84a3.469 3.469 0 1 1 0-6.938h4.593V3.125S7.874 0 11.062 0zM52 8.938v15h15.812l-5.75-15H52z"
      fill="#fff"></path>
  </symbol>
  <symbol viewBox="0 0 59 72" fill="none" xmlns="http://www.w3.org/2000/svg" id="promo-cart--discount">
    <path fill-rule="evenodd" clip-rule="evenodd" d="M58.34 21.25a3.012 3.012 0 0 0-2.396-1.179h-38.67l-2.475-7.284H3.058c-1.657 0-3 1.325-3 2.96 0 1.634 1.343 2.958 3 2.958h7.424l13.5 39.733h25.159c1.657 0 3-1.324 3-2.959 0-1.634-1.343-2.958-3-2.958H28.299l-1.726-5.079h23.12a2.995 2.995 0 0 0 2.884-2.142l6.25-21.452c.26-.893.08-1.855-.487-2.598zm-7.781 9.548h-4.81V25.99h6.211l-1.401 4.81zM32.942 25.99v4.808h6.807V25.99h-6.807zm6.807 10.727v4.808h-6.807v-4.808h6.807zm-12.807-5.919V25.99h-7.657l1.634 4.808h6.023zm-4.013 5.92h4.013v4.807h-2.379l-1.634-4.808zm22.82 0v4.807h1.685l1.401-4.808h-3.086z"
      fill="#fff"></path>
    <path d="M27.406 71.877c3.193 0 5.781-2.553 5.781-5.702 0-3.15-2.588-5.702-5.781-5.702-3.193 0-5.781 2.553-5.781 5.702s2.588 5.702 5.781 5.702zm17.438 0c3.193 0 5.781-2.553 5.781-5.702 0-3.15-2.588-5.702-5.781-5.702-3.193 0-5.781 2.553-5.781 5.702s2.588 5.702 5.781 5.702zM29.335 10.553l7.547 5.416a2.007 2.007 0 0 0 2.818-.487 2.066 2.066 0 0 0-.48-2.855l-2.373-1.703 9.436-5.02 4.628 11.85h4.347L49.214 2.276a2.037 2.037 0 0 0-1.177-1.166 1.995 1.995 0 0 0-1.643.107l-13.248 7.05-3.022-2.17a2.004 2.004 0 0 0-2.742.385l-8.481 10.65c-.17.182-.307.392-.405.62h5.106l5.733-7.2z"
      fill="#fff"></path>
  </symbol>
  <symbol viewBox="0 0 75 61" fill="none" xmlns="http://www.w3.org/2000/svg" id="promo-cart--instrument">
    <path fill-rule="evenodd" clip-rule="evenodd" d="M2.103 0C.167 0 0 2.041 0 2.041v15.812c0 2.936 2.903 3.002 2.903 3.002h9.007c1.935 0 1.601 1.334 1.601 1.334s-2.469 13.01-2.735 15.211c-.267 2.203-1.868 3.604-1.868 3.604s-2.135 1.201-3.002 1.668c-.867.467-.867 2.201-.867 2.201h30.889v-.734c0-1.467-6.472-3.135-9.073-3.402-2.602-.266-2.068-2.002-2.068-2.002l1.067-7.805h3.002l1.134-7.873h-3.002l.331-2.737 8.609-.131c5.805-.601 10.008-4.07 10.008-4.07V4.109C41.333.84 33.993 0 33.993 0H2.103zm58.284 8.016h13.488c.575 0 1.042 1.112 1.042 2.484 0 1.372-.467 2.484-1.042 2.484H60.387c-.621 2.287-2.072 3.891-3.762 3.891h-7.542V4.125h7.542c1.691 0 3.141 1.604 3.762 3.891zM6.907 61c-1.868 0-1.868-2.051-1.868-2.051V47.942h30.889v11.074c0 1.8-2.001 1.984-2.001 1.984H6.907zM36 4.969v-.031c0-.55-.45-1-1-1H5.031c-.55 0-1 .45-1 1v.031c0 .55.45 1 1 1H35c.55 0 1-.45 1-1z"
      fill="#fff"></path>
  </symbol>
  <symbol viewBox="0 0 44 65" fill="none" xmlns="http://www.w3.org/2000/svg" id="promo-cart--materials">
    <path d="M37.91 30.438v10.869s.105 2.735-2.825 2.735c-3.069 0-3.125-2.735-3.125-2.735v-6.416c0-.24-.336-1.909-2.319-1.909-2.625 0-2.67 1.877-2.67 1.877V54.08s.029 1.863-2.464 1.863C22 55.943 22 53.96 22 53.96V40.016s0-2.945-3.805-2.945c-4.054 0-3.967 3.125-3.967 3.125v3.728s-.121 2.945-4.688 2.945-4.628-4.509-4.628-4.509V29.938C3.168 28.976 0 26.671 0 26.671v29.332S2.988 65 22 65s22-8.695 22-8.695V26.671c-2.938 2.829-6.09 3.767-6.09 3.767z"
      fill="#fff"></path>
    <path fill-rule="evenodd" clip-rule="evenodd" d="M22 0C1.688 0 0 19.875 0 19.875v3.062C8.438 29.188 22 29 22 29s13.562.188 22-6.062v-3.062C44 19.875 42.312 0 22 0zm0 25c-11.75 0-14.312-2.375-14.312-2.375C13.938 19.75 22 19.875 22 19.875s8.062-.125 14.312 2.75c0 0-2.562 2.375-14.312 2.375zM4.312 15.563S12.438 12.625 22 12.625s17.688 2.937 17.688 2.937C35.125 2.624 22 3.062 22 3.062S8.875 2.625 4.312 15.563z"
      fill="#fff"></path>
  </symbol>
  <symbol viewBox="0 0 78 62" fill="none" xmlns="http://www.w3.org/2000/svg" id="promo-cart--technics">
    <path fill-rule="evenodd" clip-rule="evenodd" d="M0 45.875c0-8.907 7.22-16.126 16.125-16.126 8.906 0 16.126 7.219 16.125 16.126C32.25 54.78 25.03 62 16.125 62 7.22 62 0 54.78 0 45.875zm10.958 5.167a7.306 7.306 0 0 0 12.474-5.167 7.307 7.307 0 1 0-12.474 5.167zm49.896-5.168a8.062 8.062 0 1 0 0 16.124 8.062 8.062 0 0 0 0-16.124zm-5.062 8.062a5.063 5.063 0 1 0 10.126.002 5.063 5.063 0 0 0-10.126-.002z"
      fill="#fff"></path>
    <path fill-rule="evenodd" clip-rule="evenodd" d="M75.437 31.313c.438 3.312 2.461 18.414 2.461 18.414s.743 3.148-2.898 3.148h-1.955c-.389-6.402-5.69-11.479-12.191-11.479s-11.801 5.077-12.191 11.479H38.499a23.429 23.429 0 0 0 1.064-7c0-12.946-10.494-23.439-23.438-23.439a23.327 23.327 0 0 0-13.079 3.986c-.045-2.959-.042-13.885 2.266-20.255 0 0 1.063-2.542 3.438-3.167S33.5 0 33.5 0s2.314.062 3.126 1.875c.812 1.813 10.562 21.875 10.562 21.875L59 25.128v-5.295h4V14h3v11.946l5.812.679s3.078.547 3.625 4.688zm-59.312-11.48h6.958V6.167h-6.958v13.666zm16.958 0h-6.958V6.167h6.958v13.666zM49 36h4.016v-7H49v7zm11.016 0H56v-7h4.016v7zM63 36h4.016v-7H63v7z"
      fill="#fff"></path>
  </symbol>
  <symbol viewBox="0 0 22 40" fill="none" xmlns="http://www.w3.org/2000/svg" id="promo-sliders__icon-left">
    <path d="M19.924.941l1.998 2.048L4.907 20.436l17.071 17.502-2 2.047L.912 20.436 19.924.941z" fill="#fff"></path>
  </symbol>
  <symbol viewBox="0 0 22 40" fill="none" xmlns="http://www.w3.org/2000/svg" id="promo-sliders__icon-right">
    <path d="M2.076 39.059L.078 37.01l17.015-17.447L.022 2.062l2-2.047 19.067 19.549L2.076 39.059z" fill="#fff"></path>
  </symbol>
  <symbol viewBox="0 0 15 15" fill="none" xmlns="http://www.w3.org/2000/svg" id="common__icon-basket">
    <path d="M4.5 15a1.5 1.5 0 1 0 0-3 1.5 1.5 0 0 0 0 3zm8 0a1.5 1.5 0 1 0 0-3 1.5 1.5 0 0 0 0 3zM15 2H4.07l-.422-2H0v2h2.031l1.985 9H15V9H9.441L15 6.951V2z" fill="currentColor"></path>
  </symbol>
  <symbol viewBox="0 0 14 16" fill="none" xmlns="http://www.w3.org/2000/svg" id="user-controls__icon-bookmark">
    <path d="M14 15c0 .55-.368.741-.818.426l-5.363-3.765c-.45-.315-1.187-.315-1.637 0L.818 15.426C.368 15.741 0 15.55 0 15V1c0-.55.45-1 1-1h12c.55 0 1 .45 1 1v14z" fill="currentColor"></path>
  </symbol>
  <symbol viewBox="0 0 19 19" fill="none" xmlns="http://www.w3.org/2000/svg" id="user-controls__icon-phone">
    <path d="M15.572 18.985h-.941c-4.129-.488-7.157-2.408-9.359-4.864C3.062 11.66 1.318 8.492.978 4.228V3.084c.078-.774.459-1.304.898-1.757C2.425.766 3.25.044 4.002.019c.554-.018 1.5.38 1.879.899.329.446.504 1.339.656 2.003.154.671.505 1.643.408 2.289-.148 1.007-1.487 1.434-1.879 2.166 1.307 3.135 3.443 5.439 6.293 7.031.715-.392 1.346-1.572 2.332-1.595.359-.009.818.178 1.184.286.402.121.75.275 1.104.408.596.224 1.648.521 2.004 1.021.365.513.57 1.356.49 1.879-.164 1.041-1.879 2.197-2.901 2.579z"
      fill="#B7BFC8"></path>
  </symbol>
  <symbol viewBox="0 0 17 17" fill="none" xmlns="http://www.w3.org/2000/svg" id="user-controls__icon-search">
    <path fill-rule="evenodd" clip-rule="evenodd" d="M13.458 12.044L17 15.586 15.586 17l-3.542-3.542A7.465 7.465 0 0 1 7.5 15 7.5 7.5 0 1 1 15 7.5c0 1.643-.542 3.24-1.542 4.544zM7.5 2A5.506 5.506 0 0 0 2 7.5 5.506 5.506 0 0 0 7.5 13c3.032 0 5.5-2.468 5.5-5.5C13 4.467 10.532 2 7.5 2z"
      fill="currentColor"></path>
  </symbol>
  <symbol viewBox="0 0 108 18" fill="none" xmlns="http://www.w3.org/2000/svg" id="user-controls__logo">
    <path fill-rule="evenodd" clip-rule="evenodd" d="M103.847 2.659v14.79h-2.113V2.66h-3.756V1.015h9.626V2.66h-3.757zm-8.135 8.698a3.02 3.02 0 0 1-1.385.986c-.556.196-1.217.294-1.984.294a12 12 0 0 1-1.22-.07c-.455-.048-.83-.102-1.128-.165v5.048h-2.113V1.25a11.069 11.069 0 0 1 1.796-.364c.603-.07 1.256-.106 1.96-.106.94 0 1.738.098 2.396.294.657.195 1.19.52 1.596.974.407.454.704 1.057.892 1.808.188.751.282 1.683.282 2.794 0 1.142-.09 2.097-.27 2.864-.18.767-.454 1.382-.822 1.843zm-1.197-6.82c-.118-.564-.301-1.01-.552-1.338a1.995 1.995 0 0 0-.95-.693c-.384-.133-.842-.2-1.374-.2h-1.644v8.687h1.644c.532 0 .99-.066 1.373-.2.384-.132.7-.363.951-.692.25-.329.434-.775.552-1.338.117-.564.176-1.268.176-2.113s-.059-1.55-.176-2.113zM82.6 13.224h-4.696l-1.056 4.226h-2.114l3.992-16.435h3.052l3.991 16.435h-2.113L82.6 13.224zm-2.301-9.861h-.094l-1.949 8.217h3.992l-1.95-8.217zM70.156 5.24h-.117l-3.405 10.096h-2.113L61.117 5.24H61l-.705 12.209h-2.113l.94-16.435h2.582l3.827 11.27h.094l3.827-11.27h2.582l.94 16.435H70.86L70.157 5.24zM54.38 15.924c-.438.642-.967 1.095-1.585 1.361-.618.267-1.326.4-2.125.4-.798 0-1.506-.133-2.125-.4-.618-.266-1.146-.72-1.584-1.361-.439-.642-.771-1.507-.998-2.595-.227-1.087-.34-2.453-.34-4.097 0-1.643.113-3.009.34-4.097.227-1.087.56-1.952.998-2.594.438-.642.966-1.096 1.584-1.362C49.163.913 49.871.78 50.67.78c.799 0 1.507.133 2.125.4.618.265 1.147.72 1.585 1.361.438.642.77 1.507.998 2.594.227 1.088.34 2.454.34 4.097 0 1.644-.113 3.01-.34 4.097-.227 1.088-.56 1.953-.998 2.595zM53.358 5.758c-.165-.908-.38-1.628-.646-2.16-.266-.533-.58-.9-.94-1.104a2.218 2.218 0 0 0-1.103-.305c-.375 0-.743.102-1.103.305-.36.204-.673.571-.94 1.104-.265.532-.48 1.252-.645 2.16-.164.907-.247 2.066-.247 3.474 0 1.41.083 2.567.247 3.475.164.908.38 1.628.646 2.16.266.532.579.9.939 1.104.36.203.728.305 1.103.305.376 0 .744-.102 1.104-.305.36-.204.673-.572.939-1.104.266-.532.481-1.252.645-2.16.165-.908.247-2.066.247-3.475 0-1.408-.082-2.567-.246-3.474zM40.69 9.937h-4.93v7.513h-2.114V1.015h2.114v7.278h4.93V1.015h2.113V17.45H40.69V9.937zM29.54 17.45l-2.935-7.044-2.935 7.044h-2.113l3.522-8.452-3.17-7.983h2.113l2.583 6.574 2.582-6.574H31.3l-3.17 7.983 3.523 8.452H29.54zM12.283 1.015h7.983V2.66h-5.87v5.4h5.165v1.643h-5.165v6.104h5.87v1.644h-7.983V1.015zM6.648 17.45H4.535V2.659H.78V1.015h9.626V2.66H6.648v14.79z"
      fill="#fff"></path>
  </symbol>
  <symbol viewBox="0 0 20 17" fill="none" xmlns="http://www.w3.org/2000/svg" id="user-nav__icon-login">
    <path d="M14.167 8.5L5.714 0v6H0v5h5.714v6l8.453-8.5z" fill="#C5C5C5"></path>
    <path d="M16.177 15.01H11.39V17h4.787c2.074 0 2.861-1.81 2.885-3.026V3.028C19.038 1.811 18.252 0 16.177 0H11.39v1.99h4.787c.8 0 .945.681.962 1.057v10.904c-.016.376-.163 1.059-.962 1.059z" fill="#C5C5C5"></path>
  </symbol>
  <symbol viewBox="0 0 20 17" fill="none" xmlns="http://www.w3.org/2000/svg" id="user-nav__icon-login--hover">
    <path d="M14.167 8.5L5.714 0v6H0v5h5.714v6l8.453-8.5z" fill="#3D546F"></path>
    <path d="M16.177 15.01H11.39V17h4.787c2.074 0 2.861-1.81 2.885-3.026V3.028C19.038 1.811 18.252 0 16.177 0H11.39v1.99h4.787c.8 0 .945.681.962 1.057v10.904c-.016.376-.163 1.059-.962 1.059z" fill="#3D546F"></path>
  </symbol>
  <symbol viewBox="0 0 20 17" fill="none" xmlns="http://www.w3.org/2000/svg" id="user-nav__icon-logout">
    <path d="M20 8.5L11.125 0v6h-6v5h6v6L20 8.5z" fill="#C5C5C5"></path>
    <path d="M2.106 13.952V3.048c.018-.376.17-1.057 1.01-1.057h5.027V0H3.116C.938 0 .112 1.81.086 3.027v10.946C.113 15.189.939 17 3.117 17h5.027v-1.99H3.116c-.84 0-.992-.683-1.01-1.058z" fill="#C5C5C5"></path>
  </symbol>
  <symbol viewBox="0 0 20 17" fill="none" xmlns="http://www.w3.org/2000/svg" id="user-nav__icon-logout--hover">
    <path d="M20 8.5L11.125 0v6h-6v5h6v6L20 8.5z" fill="#3D546F"></path>
    <path d="M2.106 13.952V3.048c.018-.376.171-1.057 1.01-1.057h5.027V0H3.116C.938 0 .112 1.81.087 3.027v10.946C.112 15.189.938 17 3.116 17h5.027v-1.99H3.116c-.839 0-.992-.683-1.01-1.058z" fill="#3D546F"></path>
  </symbol>
  <symbol viewBox="0 0 20 18" fill="none" xmlns="http://www.w3.org/2000/svg" id="user-nav__icon-user">
    <path d="M17.881 14.166c-2.144-.735-4.256-1.666-5.207-2.39-.657-.501-.77-1.618-.517-2.415 1.118-.903 1.864-2.477 1.864-4.278C14.021 2.276 12.221 0 10 0S5.979 2.276 5.979 5.083c0 1.801.746 3.374 1.863 4.277.253.798.141 1.915-.517 2.416-.95.724-3.063 1.654-5.207 2.39C-.026 14.902 0 18 0 18h20s.025-3.099-2.119-3.834z"
      fill="#C5C5C5"></path>
  </symbol>
  <symbol viewBox="0 0 20 18" fill="none" xmlns="http://www.w3.org/2000/svg" id="user-nav__icon-user--hover">
    <path d="M17.881 14.166c-2.144-.735-4.256-1.666-5.207-2.39-.657-.501-.77-1.618-.517-2.415 1.118-.903 1.864-2.477 1.864-4.278C14.021 2.276 12.221 0 10 0S5.979 2.276 5.979 5.083c0 1.801.746 3.374 1.863 4.277.253.798.141 1.915-.517 2.416-.95.724-3.063 1.654-5.207 2.39C-.026 14.902 0 18 0 18h20s.025-3.099-2.119-3.834z"
      fill="#3D546F"></path>
  </symbol>
</svg>